<?xml version="1.0" standalone="no"?>
<!DOCTYPE svg PUBLIC "-//W3C//DTD SVG 20010904//EN"
 "http://www.w3.org/TR/2001/REC-SVG-20010904/DTD/svg10.dtd">
<svg version="1.0" xmlns="http://www.w3.org/2000/svg"
 width="512.000000pt" height="512.000000pt" viewBox="0 0 512.000000 512.000000"
 preserveAspectRatio="xMidYMid meet">
<metadata>
Created by potrace 1.11, written by Peter Selinger 2001-2013
</metadata>
<g transform="translate(0.000000,512.000000) scale(0.100000,-0.100000)"
fill="#000000" stroke="none">
<path d="M1360 4960 l0 -80 40 0 40 0 0 -40 0 -40 40 0 40 0 0 -80 0 -80 40 0
40 0 0 -120 0 -120 40 0 40 0 0 -160 0 -160 -160 0 -160 0 0 -40 0 -40 -40 0
-40 0 0 -40 0 -40 -40 0 -40 0 0 -160 0 -160 40 0 40 0 0 -40 0 -40 -40 0 -40
0 0 -40 0 -40 -80 0 -80 0 0 80 0 80 40 0 40 0 0 120 0 120 -40 0 -40 0 0 40
0 40 -40 0 -40 0 0 40 0 40 -80 0 -80 0 0 40 0 40 -40 0 -40 0 0 -40 0 -40
-80 0 -80 0 0 -40 0 -40 -40 0 -40 0 0 80 0 80 -40 0 -40 0 0 40 0 40 -80 0
-80 0 0 -40 0 -40 -40 0 -40 0 0 -80 0 -80 40 0 40 0 0 -40 0 -40 -40 0 -40 0
0 -40 0 -40 40 0 40 0 0 -40 0 -40 40 0 40 0 0 -40 0 -40 40 0 40 0 0 -40 0
-40 -40 0 -40 0 0 -40 0 -40 40 0 40 0 0 -40 0 -40 40 0 40 0 0 -80 0 -80 -40
0 -40 0 0 -40 0 -40 -40 0 -40 0 0 -200 0 -200 40 0 40 0 0 -80 0 -80 80 0 80
0 0 -40 0 -40 40 0 40 0 0 -80 0 -80 -40 0 -40 0 0 -40 0 -40 40 0 40 0 0 -40
0 -40 -40 0 -40 0 0 -40 0 -40 40 0 40 0 0 -40 0 -40 40 0 40 0 0 -40 0 -40
-40 0 -40 0 0 -40 0 -40 40 0 40 0 0 -40 0 -40 -40 0 -40 0 0 -40 0 -40 40 0
40 0 0 -40 0 -40 40 0 40 0 0 40 0 40 40 0 40 0 0 -80 0 -80 40 0 40 0 0 -40
0 -40 40 0 40 0 0 -40 0 -40 -80 0 -80 0 0 40 0 40 -120 0 -120 0 0 -40 0 -40
-80 0 -80 0 0 -40 0 -40 -40 0 -40 0 0 -120 0 -120 -40 0 -40 0 0 -40 0 -40
40 0 40 0 0 -40 0 -40 -40 0 -40 0 0 -40 0 -40 40 0 40 0 0 -40 0 -40 40 0 40
0 0 -40 0 -40 40 0 40 0 0 -40 0 -40 40 0 40 0 0 40 0 40 40 0 40 0 0 -40 0
-40 40 0 40 0 0 40 0 40 80 0 80 0 0 40 0 40 40 0 40 0 0 80 0 80 40 0 40 0 0
40 0 40 40 0 40 0 0 -40 0 -40 40 0 40 0 0 -40 0 -40 40 0 40 0 0 -40 0 -40
40 0 40 0 0 -40 0 -40 80 0 80 0 0 -40 0 -40 -40 0 -40 0 0 -40 0 -40 -40 0
-40 0 0 40 0 40 -40 0 -40 0 0 40 0 40 -80 0 -80 0 0 40 0 40 -40 0 -40 0 0
-40 0 -40 -40 0 -40 0 0 -40 0 -40 -40 0 -40 0 0 -40 0 -40 40 0 40 0 0 -40 0
-40 40 0 40 0 0 -40 0 -40 120 0 120 0 0 40 0 40 80 0 80 0 0 -80 0 -80 40 0
40 0 0 -40 0 -40 40 0 40 0 0 -40 0 -40 40 0 40 0 0 40 0 40 40 0 40 0 0 40 0
40 40 0 40 0 0 -40 0 -40 40 0 40 0 0 40 0 40 40 0 40 0 0 40 0 40 40 0 40 0
0 40 0 40 80 0 80 0 0 -40 0 -40 40 0 40 0 0 -40 0 -40 -40 0 -40 0 0 -40 0
-40 40 0 40 0 0 40 0 40 40 0 40 0 0 -40 0 -40 40 0 40 0 0 40 0 40 80 0 80 0
0 40 0 40 40 0 40 0 0 80 0 80 40 0 40 0 0 -40 0 -40 40 0 40 0 0 -40 0 -40
120 0 120 0 0 40 0 40 40 0 40 0 0 40 0 40 40 0 40 0 0 80 0 80 -40 0 -40 0 0
40 0 40 -40 0 -40 0 0 40 0 40 40 0 40 0 0 40 0 40 40 0 40 0 0 -40 0 -40 80
0 80 0 0 40 0 40 40 0 40 0 0 -40 0 -40 40 0 40 0 0 40 0 40 40 0 40 0 0 40 0
40 -40 0 -40 0 0 40 0 40 40 0 40 0 0 80 0 80 -40 0 -40 0 0 40 0 40 -40 0
-40 0 0 120 0 120 40 0 40 0 0 80 0 80 40 0 40 0 0 40 0 40 40 0 40 0 0 40 0
40 40 0 40 0 0 80 0 80 -40 0 -40 0 0 40 0 40 40 0 40 0 0 40 0 40 40 0 40 0
0 80 0 80 -40 0 -40 0 0 80 0 80 -40 0 -40 0 0 40 0 40 -80 0 -80 0 0 40 0 40
80 0 80 0 0 40 0 40 80 0 80 0 0 160 0 160 40 0 40 0 0 120 0 120 40 0 40 0 0
80 0 80 40 0 40 0 0 120 0 120 40 0 40 0 0 80 0 80 40 0 40 0 0 120 0 120 40
0 40 0 0 40 0 40 40 0 40 0 0 40 0 40 40 0 40 0 0 40 0 40 40 0 40 0 0 40 0
40 40 0 40 0 0 40 0 40 40 0 40 0 0 40 0 40 40 0 40 0 0 80 0 80 -160 0 -160
0 0 -40 0 -40 -120 0 -120 0 0 -40 0 -40 -80 0 -80 0 0 -40 0 -40 -80 0 -80 0
0 -40 0 -40 -80 0 -80 0 0 -40 0 -40 -40 0 -40 0 0 -40 0 -40 -40 0 -40 0 0
-40 0 -40 -40 0 -40 0 0 -40 0 -40 -40 0 -40 0 0 -40 0 -40 -40 0 -40 0 0 -40
0 -40 -80 0 -80 0 0 -40 0 -40 -80 0 -80 0 0 -40 0 -40 -40 0 -40 0 0 -40 0
-40 -40 0 -40 0 0 -80 0 -80 -40 0 -40 0 0 -120 0 -120 40 0 40 0 0 -40 0 -40
-80 0 -80 0 0 80 0 80 -40 0 -40 0 0 40 0 40 -40 0 -40 0 0 80 0 80 -40 0 -40
0 0 280 0 280 -40 0 -40 0 0 80 0 80 -40 0 -40 0 0 40 0 40 -40 0 -40 0 0 40
0 40 -40 0 -40 0 0 40 0 40 -40 0 -40 0 0 40 0 40 -40 0 -40 0 0 40 0 40 -40
0 -40 0 0 40 0 40 -80 0 -80 0 0 40 0 40 -80 0 -80 0 0 40 0 40 -80 0 -80 0 0
40 0 40 -120 0 -120 0 0 -80z m-880 -1080 l0 -40 -40 0 -40 0 0 40 0 40 40 0
40 0 0 -40z m-160 -80 l0 -40 40 0 40 0 0 -40 0 -40 -40 0 -40 0 0 40 0 40
-40 0 -40 0 0 40 0 40 40 0 40 0 0 -40z m160 -320 l0 -40 -40 0 -40 0 0 40 0
40 40 0 40 0 0 -40z m480 -80 l0 -40 40 0 40 0 0 -40 0 -40 -40 0 -40 0 0 -40
0 -40 -40 0 -40 0 0 40 0 40 -40 0 -40 0 0 80 0 80 80 0 80 0 0 -40z m160
-520 l0 -80 -80 0 -80 0 0 80 0 80 80 0 80 0 0 -80z m2560 -360 l0 -40 -40 0
-40 0 0 -40 0 -40 40 0 40 0 0 -40 0 -40 40 0 40 0 0 -40 0 -40 -40 0 -40 0 0
40 0 40 -40 0 -40 0 0 40 0 40 -40 0 -40 0 0 80 0 80 80 0 80 0 0 -40z m-2960
-240 l0 -40 -40 0 -40 0 0 40 0 40 40 0 40 0 0 -40z m0 -160 l0 -40 40 0 40 0
0 -40 0 -40 40 0 40 0 0 -120 0 -120 -40 0 -40 0 0 -40 0 -40 -40 0 -40 0 0
40 0 40 40 0 40 0 0 40 0 40 -40 0 -40 0 0 40 0 40 40 0 40 0 0 40 0 40 -40 0
-40 0 0 40 0 40 -40 0 -40 0 0 40 0 40 40 0 40 0 0 -40z m3040 -80 l0 -40 -40
0 -40 0 0 40 0 40 40 0 40 0 0 -40z m-80 -1120 l0 -40 -40 0 -40 0 0 40 0 40
40 0 40 0 0 -40z m-2480 -320 l0 -40 -40 0 -40 0 0 -40 0 -40 40 0 40 0 0 -40
0 -40 -40 0 -40 0 0 40 0 40 -40 0 -40 0 0 40 0 40 40 0 40 0 0 40 0 40 40 0
40 0 0 -40z m560 -80 l0 -40 -80 0 -80 0 0 -40 0 -40 -40 0 -40 0 0 40 0 40
40 0 40 0 0 40 0 40 80 0 80 0 0 -40z m720 -160 l0 -40 40 0 40 0 0 -40 0 -40
-40 0 -40 0 0 40 0 40 -40 0 -40 0 0 40 0 40 40 0 40 0 0 -40z m-640 -80 l0
-40 -40 0 -40 0 0 -40 0 -40 -40 0 -40 0 0 40 0 40 40 0 40 0 0 40 0 40 40 0
40 0 0 -40z m160 0 l0 -40 -40 0 -40 0 0 40 0 40 40 0 40 0 0 -40z"/>
<path d="M3920 1720 l0 -40 -40 0 -40 0 0 -120 0 -120 80 0 80 0 0 40 0 40 40
0 40 0 0 80 0 80 -40 0 -40 0 0 40 0 40 -40 0 -40 0 0 -40z"/>
</g>
</svg>
